name analog
datacolumns 19
datarows 32
range 0.0 0.0155
endheader
time	ground_force_vx	ground_force_vy	ground_force_vz	ground_force_px	ground_force_py	ground_force_pz	l_ground_force_vx	l_ground_force_vy	l_ground_force_vz	l_ground_force_px	l_ground_force_py	l_ground_force_pz	ground_torque_x	ground_torque_y	ground_torque_z	l_ground_torque_x	l_ground_torque_y	l_ground_torque_z
0.0	-0.0	-0.0	-0.0	-14.176196098327637	20.87489318847656	-470.541259765625	4.741533279418945	-14.775322914123535	-320.8247985839844	-0.0	-0.0	-0.0	-0.0	-0.0	-0.0	106823.7890625	-22259.1796875	1308.7049560546875
0.0005	-0.0	-0.0	-0.0	-13.63152313232422	20.535722732543945	-469.7293090820313	4.584247589111328	-14.72406768798828	-321.56866455078125	-0.0	-0.0	-0.0	-0.0	-0.0	-0.0	106378.59375	-22194.380859375	1313.3543701171875
0.001	-0.0	-0.0	-0.0	-13.979257583618164	20.20612525939941	-469.5171813964844	5.053088188171387	-14.609955787658691	-320.52117919921875	-0.0	-0.0	-0.0	-0.0	-0.0	-0.0	106143.46875	-22117.943359375	1181.5518798828125
0.0015	-0.0	-0.0	-0.0	-13.872688293457031	20.241241455078125	-469.7635803222656	4.764485836029053	-14.59502410888672	-319.371826171875	-0.0	-0.0	-0.0	-0.0	-0.0	-0.0	105784.1328125	-22085.6953125	1224.56640625
0.002	-0.0	-0.0	-0.0	-13.603748321533203	19.627197265625	-467.71685791015625	4.889875411987305	-14.484756469726562	-318.32403564453125	-0.0	-0.0	-0.0	-0.0	-0.0	-0.0	104922.2890625	-21904.61328125	1216.024169921875
0.0025	-0.0	-0.0	-0.0	-14.744585990905762	19.873958587646484	-469.5157165527344	5.004479885101318	-14.017244338989258	-314.93475341796875	-0.0	-0.0	-0.0	-0.0	-0.0	-0.0	104525.40625	-21683.5625	1182.99609375
0.003	-0.0	-0.0	-0.0	-14.565793991088867	19.019920349121094	-472.5770263671875	4.915687084197998	-14.032658576965332	-313.53814697265625	-0.0	-0.0	-0.0	-0.0	-0.0	-0.0	103997.2421875	-21705.998046875	1233.5845947265625
0.0035	-0.0	-0.0	-0.0	-14.47586154937744	19.49706268310547	-474.1061401367188	4.780086040496826	-14.058919906616213	-310.6233825683594	-0.0	-0.0	-0.0	-0.0	-0.0	-0.0	103550.0625	-21447.474609375	1217.6429443359375
0.004	-0.0	-0.0	-0.0	-14.320262908935549	18.938236236572266	-474.9195251464844	4.852893829345703	-13.69993019104004	-309.1656188964844	-0.0	-0.0	-0.0	-0.0	-0.0	-0.0	103203.4453125	-21467.71484375	1064.4952392578125
0.0045000000000000005	-0.0	-0.0	-0.0	-15.00251579284668	19.321678161621094	-476.6851806640625	4.9252543449401855	-13.725909233093262	-308.6500244140625	-0.0	-0.0	-0.0	-0.0	-0.0	-0.0	102683.984375	-21313.068359375	1115.142822265625
0.005	-0.0	-0.0	-0.0	-14.452102661132812	19.06654357910156	-478.7456359863281	5.030194282531738	-13.751977920532228	-307.00787353515625	-0.0	-0.0	-0.0	-0.0	-0.0	-0.0	102486.3125	-20719.478515625	996.6005249023438
0.0055	-0.0	-0.0	-0.0	-14.231969833374023	19.868900299072266	-479.7550659179688	4.514684677124023	-12.973764419555664	-306.48895263671875	-0.0	-0.0	-0.0	-0.0	-0.0	-0.0	102059.40625	-20737.126953125	860.172607421875
0.006	-0.0	-0.0	-0.0	-14.012994766235352	20.061279296875	-482.7708740234375	4.284579277038574	-12.594369888305664	-306.0650939941406	-0.0	-0.0	-0.0	-0.0	-0.0	-0.0	101999.1015625	-20365.0703125	764.8760375976562
0.006500000000000001	-0.0	-0.0	-0.0	-13.285545349121094	20.64400100708008	-482.9327087402344	4.21320915222168	-12.197555541992188	-304.56451416015625	-0.0	-0.0	-0.0	-0.0	-0.0	-0.0	102029.359375	-20392.9453125	619.7656860351562
0.007	-0.0	-0.0	-0.0	-13.360766410827637	21.514596939086918	-483.50335693359375	3.9563629627227774	-11.835105895996094	-304.006591796875	-0.0	-0.0	-0.0	-0.0	-0.0	-0.0	101929.8984375	-20436.685546875	471.3966064453125
0.0075	-0.0	-0.0	-0.0	-12.723063468933104	21.200138092041016	-483.4522399902344	3.672605037689209	-11.59664821624756	-304.7745666503906	-0.0	-0.0	-0.0	-0.0	-0.0	-0.0	102141.46875	-20201.9296875	337.8650817871094
0.008	-0.0	-0.0	-0.0	-12.812397956848145	21.69257354736328	-483.0158996582031	3.761192798614502	-11.60532569885254	-305.2635498046875	-0.0	-0.0	-0.0	-0.0	-0.0	-0.0	102122.703125	-20185.435546875	343.8783569335937
0.0085	-0.0	-0.0	-0.0	-11.680468559265137	21.32373809814453	-482.3954162597656	3.637142181396485	-11.366876602172852	-305.43585205078125	-0.0	-0.0	-0.0	-0.0	-0.0	-0.0	102400.0390625	-20185.962890625	254.89390563964844
0.009000000000000001	-0.0	-0.0	-0.0	-10.822240829467772	21.83694839477539	-481.7608337402344	3.707338333129883	-11.190165519714355	-307.9114990234375	-0.0	-0.0	-0.0	-0.0	-0.0	-0.0	103130.625	-20175.8359375	162.6236572265625
0.0095	-0.0	-0.0	-0.0	-10.766661643981934	21.686471939086918	-480.56781005859375	3.3686676025390625	-10.99488353729248	-308.7143249511719	-0.0	-0.0	-0.0	-0.0	-0.0	-0.0	103206.2265625	-19944.037109375	-47.2327995300293
0.01	-0.0	-0.0	-0.0	-10.866870880126951	21.86481285095215	-482.3553161621094	3.142873525619507	-11.289386749267578	-309.9718933105469	-0.0	-0.0	-0.0	-0.0	-0.0	-0.0	103785.4921875	-20054.787109375	-80.6202163696289
0.0105	-0.0	-0.0	-0.0	-10.287160873413086	21.93142890930176	-481.3630676269531	3.371009826660156	-11.612432479858398	-311.3065490722656	-0.0	-0.0	-0.0	-0.0	-0.0	-0.0	104246.375	-19786.248046875	-137.25772094726562
0.011	-0.0	-0.0	-0.0	-9.897137641906738	21.83172416687012	-482.9078063964844	2.75003433227539	-12.092484474182127	-314.3128662109375	-0.0	-0.0	-0.0	-0.0	-0.0	-0.0	104783.0859375	-19774.349609375	-253.9571533203125
0.0115	-0.0	-0.0	-0.0	-9.662809371948242	21.86499786376953	-483.1106567382813	2.5528836250305176	-12.161401748657228	-314.9638366699219	-0.0	-0.0	-0.0	-0.0	-0.0	-0.0	105203.578125	-19557.392578125	-395.9712219238281
0.012	-0.0	-0.0	-0.0	-9.056764602661133	21.893129348754883	-482.55511474609375	2.156209945678711	-12.671483993530272	-315.4976501464844	-0.0	-0.0	-0.0	-0.0	-0.0	-0.0	105765.703125	-19171.98828125	-515.0528564453125
0.0125	-0.0	-0.0	-0.0	-9.014923095703123	21.89326477050781	-484.2474670410156	1.5010268688201904	-12.901991844177246	-316.9503479003906	-0.0	-0.0	-0.0	-0.0	-0.0	-0.0	105840.1015625	-18885.255859375	-734.7091064453125
0.013000000000000001	-0.0	-0.0	-0.0	-8.681676864624023	22.17410659790039	-487.03515625	1.7264654636383057	-12.95611572265625	-317.2714233398437	-0.0	-0.0	-0.0	-0.0	-0.0	-0.0	105513.2265625	-18555.404296875	-846.3529052734375
0.0135	-0.0	-0.0	-0.0	-8.263964653015137	22.31949234008789	-487.0693054199219	1.18057382106781	-13.322721481323242	-317.3788452148437	-0.0	-0.0	-0.0	-0.0	-0.0	-0.0	105680.96875	-18370.796875	-751.0416870117188
0.014	-0.0	-0.0	-0.0	-7.793766498565674	22.189401626586918	-484.8999328613281	1.3984298706054688	-13.281988143920898	-316.3568420410156	-0.0	-0.0	-0.0	-0.0	-0.0	-0.0	105236.4921875	-18063.95703125	-901.467041015625
0.0145	-0.0	-0.0	-0.0	-7.233826637268066	22.38338279724121	-485.7350158691406	1.2419509887695312	-13.546831130981444	-314.5608825683594	-0.0	-0.0	-0.0	-0.0	-0.0	-0.0	105157.21875	-17866.80078125	-958.8919677734376
0.015	-0.0	-0.0	-0.0	-7.1368408203125	22.40018653869629	-485.186279296875	0.9084593653678894	-14.16500186920166	-315.0188293457031	-0.0	-0.0	-0.0	-0.0	-0.0	-0.0	104856.875	-17437.763671875	-902.0739135742188
0.0155	-0.0	-0.0	-0.0	-6.540929317474365	22.079322814941406	-483.3902587890625	0.98766827583313	-14.524028778076172	-314.3450622558594	-0.0	-0.0	-0.0	-0.0	-0.0	-0.0	104607.59375	-17288.7890625	-909.3818359375
